<svg width="36" height="33" viewBox="0 0 36 33" fill="none" xmlns="http://www.w3.org/2000/svg">
<path d="M33.044 2.94157C29.6178 0.991794 25.2322 0 20.0072 0C13.6943 0 8.86332 1.56658 5.22294 4.78992C4.86318 5.10549 4.53769 5.43233 4.22076 5.77044L7.46712 11.3718C8.05815 10.3575 8.82905 9.41078 9.80553 8.54296C12.221 6.44666 15.81 5.38725 20.4526 5.38725C23.7418 5.38725 27.0995 6.06347 30.4829 7.35957L33.044 2.95284V2.94157Z" fill="#2DFF28"/>
<path d="M16.9513 13.784L20.1035 19.2163H30.3736V25.7869C27.1701 27.0041 23.9494 27.624 20.6088 27.624C15.7521 27.624 12.2231 26.6097 9.80761 24.5247C8.95105 23.7695 8.24012 22.9243 7.67479 22.0114L7.61482 21.9212C7.58056 21.8648 7.55487 21.8198 7.52917 21.7634L1.0707 10.6283C0.368321 12.4203 0 14.3926 0 16.5565C0 21.3802 1.77308 25.3361 5.27641 28.3228C8.90823 31.4221 13.9191 33 20.1634 33C28.986 33 35.7186 28.6609 35.7186 28.6609V13.784H16.9513Z" fill="white"/>
</svg>
