<svg width="45" height="37" viewBox="0 0 45 37" fill="none" xmlns="http://www.w3.org/2000/svg">
<path d="M32.0084 13.0436C28.5431 14.2313 21.4084 14.5557 19.9312 7.27621C19.0836 3.10106 17.0797 2.00756 17.0797 2.00756C19.9626 1.47215 30.6551 -1.90599 31.9265 7.72616" stroke="#2DFF28" stroke-width="2" stroke-linecap="round" stroke-linejoin="round"/>
<path d="M33.1159 17.4995C33.0845 12.9563 30.4737 8.2789 23.5884 5.08911" stroke="#2DFF28" stroke-width="2" stroke-linecap="round" stroke-linejoin="round"/>
<path d="M34.7553 12.6426C33.4769 2.76629 43.8189 5.27592 43.8189 5.27592C43.9043 7.50127 43.2451 14.0605 36.8167 14.7476" stroke="#2DFF28" stroke-width="2" stroke-linecap="round" stroke-linejoin="round"/>
<path d="M33.1316 17.4979C33.1316 17.4979 32.9432 11.6118 39.8582 8.7168" stroke="#2DFF28" stroke-width="2" stroke-linecap="round" stroke-linejoin="round"/>
<path d="M13.8185 17.9914H18.4697L9.37298 30.0024L10.6287 20.9388L5.97914 21.0121L15.0759 9.32373L13.8185 17.9914Z" stroke="#2DFF28" stroke-width="2" stroke-linecap="round" stroke-linejoin="round"/>
<path d="M22.4949 15.4556L22.5018 35.7436" stroke="#2DFF28" stroke-width="2" stroke-linecap="round" stroke-linejoin="round"/>
<path d="M2.33243 35.7437L2.34464 4.32718C2.34464 3.18834 2.85563 2.26577 3.99272 2.26577L13.7993 2.25879" stroke="#2DFF28" stroke-width="2" stroke-linecap="round" stroke-linejoin="round"/>
<path d="M22.6205 25.3005H25.4318C26.5706 25.3005 27.4932 26.2231 27.4932 27.3619V32.0725C27.4932 33.5148 28.6617 34.6833 30.104 34.6833C31.773 34.6833 33.1264 33.3299 33.1264 31.6609V17.3147" stroke="#2DFF28" stroke-width="2" stroke-linecap="round" stroke-linejoin="round"/>
<path d="M1 36H23.6808" stroke="#2DFF28" stroke-width="2" stroke-linecap="round" stroke-linejoin="round"/>
</svg>
